<mxfile host="Electron" agent="Mozilla/5.0 (Windows NT 10.0; Win64; x64) AppleWebKit/537.36 (KHTML, like Gecko) draw.io/27.0.9 Chrome/134.0.6998.205 Electron/35.4.0 Safari/537.36" version="27.0.9">
  <diagram name="Page-1" id="hgAMzXJsQM9ETqNDBTZT">
    <mxGraphModel dx="683" dy="1545" grid="1" gridSize="10" guides="1" tooltips="1" connect="1" arrows="1" fold="1" page="1" pageScale="1" pageWidth="850" pageHeight="1100" math="0" shadow="0">
      <root>
        <mxCell id="0" />
        <mxCell id="1" parent="0" />
        <mxCell id="v_-HlSnPzHenAggTJ9jH-1" value="&lt;b&gt;&lt;font style=&quot;font-size: 30px;&quot;&gt;Data Mart&lt;/font&gt;&lt;/b&gt;" style="text;html=1;align=center;verticalAlign=middle;whiteSpace=wrap;rounded=0;" vertex="1" parent="1">
          <mxGeometry x="30" y="10" width="290" height="110" as="geometry" />
        </mxCell>
        <mxCell id="v_-HlSnPzHenAggTJ9jH-2" value="&lt;font style=&quot;font-size: 16px;&quot;&gt;(&lt;/font&gt;&lt;span style=&quot;font-size: 16px; background-color: transparent; color: light-dark(rgb(0, 0, 0), rgb(255, 255, 255));&quot;&gt;Star Schema)&lt;/span&gt;" style="text;html=1;align=center;verticalAlign=middle;whiteSpace=wrap;rounded=0;" vertex="1" parent="1">
          <mxGeometry x="230" y="53.5" width="150" height="31" as="geometry" />
        </mxCell>
        <mxCell id="v_-HlSnPzHenAggTJ9jH-3" value="gold.dim_customers" style="shape=table;startSize=40;container=1;collapsible=1;childLayout=tableLayout;fixedRows=1;rowLines=0;fontStyle=1;align=center;resizeLast=1;html=1;rounded=1;fillColor=#fff2cc;strokeColor=#d6b656;fontSize=16;" vertex="1" parent="1">
          <mxGeometry x="150" y="250" width="250" height="440" as="geometry" />
        </mxCell>
        <mxCell id="v_-HlSnPzHenAggTJ9jH-4" value="" style="shape=tableRow;horizontal=0;startSize=0;swimlaneHead=0;swimlaneBody=0;fillColor=none;collapsible=0;dropTarget=0;points=[[0,0.5],[1,0.5]];portConstraint=eastwest;top=0;left=0;right=0;bottom=1;fontSize=16;fontStyle=1" vertex="1" parent="v_-HlSnPzHenAggTJ9jH-3">
          <mxGeometry y="40" width="250" height="39" as="geometry" />
        </mxCell>
        <mxCell id="v_-HlSnPzHenAggTJ9jH-5" value="PK" style="shape=partialRectangle;connectable=0;fillColor=none;top=0;left=0;bottom=0;right=0;fontStyle=1;overflow=hidden;whiteSpace=wrap;html=1;fontSize=16;" vertex="1" parent="v_-HlSnPzHenAggTJ9jH-4">
          <mxGeometry width="30" height="39" as="geometry">
            <mxRectangle width="30" height="39" as="alternateBounds" />
          </mxGeometry>
        </mxCell>
        <mxCell id="v_-HlSnPzHenAggTJ9jH-6" value="customer_key" style="shape=partialRectangle;connectable=0;fillColor=none;top=0;left=0;bottom=0;right=0;align=left;spacingLeft=6;fontStyle=5;overflow=hidden;whiteSpace=wrap;html=1;fontSize=16;" vertex="1" parent="v_-HlSnPzHenAggTJ9jH-4">
          <mxGeometry x="30" width="220" height="39" as="geometry">
            <mxRectangle width="220" height="39" as="alternateBounds" />
          </mxGeometry>
        </mxCell>
        <mxCell id="v_-HlSnPzHenAggTJ9jH-7" value="" style="shape=tableRow;horizontal=0;startSize=0;swimlaneHead=0;swimlaneBody=0;fillColor=none;collapsible=0;dropTarget=0;points=[[0,0.5],[1,0.5]];portConstraint=eastwest;top=0;left=0;right=0;bottom=0;fontSize=16;fontStyle=1" vertex="1" parent="v_-HlSnPzHenAggTJ9jH-3">
          <mxGeometry y="79" width="250" height="39" as="geometry" />
        </mxCell>
        <mxCell id="v_-HlSnPzHenAggTJ9jH-8" value="" style="shape=partialRectangle;connectable=0;fillColor=none;top=0;left=0;bottom=0;right=0;editable=1;overflow=hidden;whiteSpace=wrap;html=1;fontSize=16;fontStyle=1" vertex="1" parent="v_-HlSnPzHenAggTJ9jH-7">
          <mxGeometry width="30" height="39" as="geometry">
            <mxRectangle width="30" height="39" as="alternateBounds" />
          </mxGeometry>
        </mxCell>
        <mxCell id="v_-HlSnPzHenAggTJ9jH-9" value="customer_id" style="shape=partialRectangle;connectable=0;fillColor=none;top=0;left=0;bottom=0;right=0;align=left;spacingLeft=6;overflow=hidden;whiteSpace=wrap;html=1;fontSize=16;fontStyle=1" vertex="1" parent="v_-HlSnPzHenAggTJ9jH-7">
          <mxGeometry x="30" width="220" height="39" as="geometry">
            <mxRectangle width="220" height="39" as="alternateBounds" />
          </mxGeometry>
        </mxCell>
        <mxCell id="v_-HlSnPzHenAggTJ9jH-10" value="" style="shape=tableRow;horizontal=0;startSize=0;swimlaneHead=0;swimlaneBody=0;fillColor=none;collapsible=0;dropTarget=0;points=[[0,0.5],[1,0.5]];portConstraint=eastwest;top=0;left=0;right=0;bottom=0;fontSize=16;fontStyle=1" vertex="1" parent="v_-HlSnPzHenAggTJ9jH-3">
          <mxGeometry y="118" width="250" height="39" as="geometry" />
        </mxCell>
        <mxCell id="v_-HlSnPzHenAggTJ9jH-11" value="" style="shape=partialRectangle;connectable=0;fillColor=none;top=0;left=0;bottom=0;right=0;editable=1;overflow=hidden;whiteSpace=wrap;html=1;fontSize=16;fontStyle=1" vertex="1" parent="v_-HlSnPzHenAggTJ9jH-10">
          <mxGeometry width="30" height="39" as="geometry">
            <mxRectangle width="30" height="39" as="alternateBounds" />
          </mxGeometry>
        </mxCell>
        <mxCell id="v_-HlSnPzHenAggTJ9jH-12" value="customer_number" style="shape=partialRectangle;connectable=0;fillColor=none;top=0;left=0;bottom=0;right=0;align=left;spacingLeft=6;overflow=hidden;whiteSpace=wrap;html=1;fontSize=16;fontStyle=1" vertex="1" parent="v_-HlSnPzHenAggTJ9jH-10">
          <mxGeometry x="30" width="220" height="39" as="geometry">
            <mxRectangle width="220" height="39" as="alternateBounds" />
          </mxGeometry>
        </mxCell>
        <mxCell id="v_-HlSnPzHenAggTJ9jH-13" value="" style="shape=tableRow;horizontal=0;startSize=0;swimlaneHead=0;swimlaneBody=0;fillColor=none;collapsible=0;dropTarget=0;points=[[0,0.5],[1,0.5]];portConstraint=eastwest;top=0;left=0;right=0;bottom=0;fontSize=16;fontStyle=1" vertex="1" parent="v_-HlSnPzHenAggTJ9jH-3">
          <mxGeometry y="157" width="250" height="39" as="geometry" />
        </mxCell>
        <mxCell id="v_-HlSnPzHenAggTJ9jH-14" value="" style="shape=partialRectangle;connectable=0;fillColor=none;top=0;left=0;bottom=0;right=0;editable=1;overflow=hidden;whiteSpace=wrap;html=1;fontSize=16;fontStyle=1" vertex="1" parent="v_-HlSnPzHenAggTJ9jH-13">
          <mxGeometry width="30" height="39" as="geometry">
            <mxRectangle width="30" height="39" as="alternateBounds" />
          </mxGeometry>
        </mxCell>
        <mxCell id="v_-HlSnPzHenAggTJ9jH-15" value="first_name" style="shape=partialRectangle;connectable=0;fillColor=none;top=0;left=0;bottom=0;right=0;align=left;spacingLeft=6;overflow=hidden;whiteSpace=wrap;html=1;fontSize=16;fontStyle=1" vertex="1" parent="v_-HlSnPzHenAggTJ9jH-13">
          <mxGeometry x="30" width="220" height="39" as="geometry">
            <mxRectangle width="220" height="39" as="alternateBounds" />
          </mxGeometry>
        </mxCell>
        <mxCell id="v_-HlSnPzHenAggTJ9jH-16" value="" style="shape=tableRow;horizontal=0;startSize=0;swimlaneHead=0;swimlaneBody=0;fillColor=none;collapsible=0;dropTarget=0;points=[[0,0.5],[1,0.5]];portConstraint=eastwest;top=0;left=0;right=0;bottom=0;fontSize=16;fontStyle=1" vertex="1" parent="v_-HlSnPzHenAggTJ9jH-3">
          <mxGeometry y="196" width="250" height="39" as="geometry" />
        </mxCell>
        <mxCell id="v_-HlSnPzHenAggTJ9jH-17" value="" style="shape=partialRectangle;connectable=0;fillColor=none;top=0;left=0;bottom=0;right=0;editable=1;overflow=hidden;whiteSpace=wrap;html=1;fontSize=16;fontStyle=1" vertex="1" parent="v_-HlSnPzHenAggTJ9jH-16">
          <mxGeometry width="30" height="39" as="geometry">
            <mxRectangle width="30" height="39" as="alternateBounds" />
          </mxGeometry>
        </mxCell>
        <mxCell id="v_-HlSnPzHenAggTJ9jH-18" value="last_name" style="shape=partialRectangle;connectable=0;fillColor=none;top=0;left=0;bottom=0;right=0;align=left;spacingLeft=6;overflow=hidden;whiteSpace=wrap;html=1;fontSize=16;fontStyle=1" vertex="1" parent="v_-HlSnPzHenAggTJ9jH-16">
          <mxGeometry x="30" width="220" height="39" as="geometry">
            <mxRectangle width="220" height="39" as="alternateBounds" />
          </mxGeometry>
        </mxCell>
        <mxCell id="v_-HlSnPzHenAggTJ9jH-19" value="" style="shape=tableRow;horizontal=0;startSize=0;swimlaneHead=0;swimlaneBody=0;fillColor=none;collapsible=0;dropTarget=0;points=[[0,0.5],[1,0.5]];portConstraint=eastwest;top=0;left=0;right=0;bottom=0;fontSize=16;fontStyle=1" vertex="1" parent="v_-HlSnPzHenAggTJ9jH-3">
          <mxGeometry y="235" width="250" height="39" as="geometry" />
        </mxCell>
        <mxCell id="v_-HlSnPzHenAggTJ9jH-20" value="" style="shape=partialRectangle;connectable=0;fillColor=none;top=0;left=0;bottom=0;right=0;editable=1;overflow=hidden;whiteSpace=wrap;html=1;fontSize=16;fontStyle=1" vertex="1" parent="v_-HlSnPzHenAggTJ9jH-19">
          <mxGeometry width="30" height="39" as="geometry">
            <mxRectangle width="30" height="39" as="alternateBounds" />
          </mxGeometry>
        </mxCell>
        <mxCell id="v_-HlSnPzHenAggTJ9jH-21" value="country" style="shape=partialRectangle;connectable=0;fillColor=none;top=0;left=0;bottom=0;right=0;align=left;spacingLeft=6;overflow=hidden;whiteSpace=wrap;html=1;fontSize=16;fontStyle=1" vertex="1" parent="v_-HlSnPzHenAggTJ9jH-19">
          <mxGeometry x="30" width="220" height="39" as="geometry">
            <mxRectangle width="220" height="39" as="alternateBounds" />
          </mxGeometry>
        </mxCell>
        <mxCell id="v_-HlSnPzHenAggTJ9jH-22" value="" style="shape=tableRow;horizontal=0;startSize=0;swimlaneHead=0;swimlaneBody=0;fillColor=none;collapsible=0;dropTarget=0;points=[[0,0.5],[1,0.5]];portConstraint=eastwest;top=0;left=0;right=0;bottom=0;fontSize=16;fontStyle=1" vertex="1" parent="v_-HlSnPzHenAggTJ9jH-3">
          <mxGeometry y="274" width="250" height="39" as="geometry" />
        </mxCell>
        <mxCell id="v_-HlSnPzHenAggTJ9jH-23" value="" style="shape=partialRectangle;connectable=0;fillColor=none;top=0;left=0;bottom=0;right=0;editable=1;overflow=hidden;whiteSpace=wrap;html=1;fontSize=16;fontStyle=1" vertex="1" parent="v_-HlSnPzHenAggTJ9jH-22">
          <mxGeometry width="30" height="39" as="geometry">
            <mxRectangle width="30" height="39" as="alternateBounds" />
          </mxGeometry>
        </mxCell>
        <mxCell id="v_-HlSnPzHenAggTJ9jH-24" value="marital_status" style="shape=partialRectangle;connectable=0;fillColor=none;top=0;left=0;bottom=0;right=0;align=left;spacingLeft=6;overflow=hidden;whiteSpace=wrap;html=1;fontSize=16;fontStyle=1" vertex="1" parent="v_-HlSnPzHenAggTJ9jH-22">
          <mxGeometry x="30" width="220" height="39" as="geometry">
            <mxRectangle width="220" height="39" as="alternateBounds" />
          </mxGeometry>
        </mxCell>
        <mxCell id="v_-HlSnPzHenAggTJ9jH-25" value="" style="shape=tableRow;horizontal=0;startSize=0;swimlaneHead=0;swimlaneBody=0;fillColor=none;collapsible=0;dropTarget=0;points=[[0,0.5],[1,0.5]];portConstraint=eastwest;top=0;left=0;right=0;bottom=0;fontSize=16;fontStyle=1" vertex="1" parent="v_-HlSnPzHenAggTJ9jH-3">
          <mxGeometry y="313" width="250" height="39" as="geometry" />
        </mxCell>
        <mxCell id="v_-HlSnPzHenAggTJ9jH-26" value="" style="shape=partialRectangle;connectable=0;fillColor=none;top=0;left=0;bottom=0;right=0;editable=1;overflow=hidden;whiteSpace=wrap;html=1;fontSize=16;fontStyle=1" vertex="1" parent="v_-HlSnPzHenAggTJ9jH-25">
          <mxGeometry width="30" height="39" as="geometry">
            <mxRectangle width="30" height="39" as="alternateBounds" />
          </mxGeometry>
        </mxCell>
        <mxCell id="v_-HlSnPzHenAggTJ9jH-27" value="gender" style="shape=partialRectangle;connectable=0;fillColor=none;top=0;left=0;bottom=0;right=0;align=left;spacingLeft=6;overflow=hidden;whiteSpace=wrap;html=1;fontSize=16;fontStyle=1" vertex="1" parent="v_-HlSnPzHenAggTJ9jH-25">
          <mxGeometry x="30" width="220" height="39" as="geometry">
            <mxRectangle width="220" height="39" as="alternateBounds" />
          </mxGeometry>
        </mxCell>
        <mxCell id="v_-HlSnPzHenAggTJ9jH-28" value="" style="shape=tableRow;horizontal=0;startSize=0;swimlaneHead=0;swimlaneBody=0;fillColor=none;collapsible=0;dropTarget=0;points=[[0,0.5],[1,0.5]];portConstraint=eastwest;top=0;left=0;right=0;bottom=0;fontSize=16;fontStyle=1" vertex="1" parent="v_-HlSnPzHenAggTJ9jH-3">
          <mxGeometry y="352" width="250" height="39" as="geometry" />
        </mxCell>
        <mxCell id="v_-HlSnPzHenAggTJ9jH-29" value="" style="shape=partialRectangle;connectable=0;fillColor=none;top=0;left=0;bottom=0;right=0;editable=1;overflow=hidden;whiteSpace=wrap;html=1;fontSize=16;fontStyle=1" vertex="1" parent="v_-HlSnPzHenAggTJ9jH-28">
          <mxGeometry width="30" height="39" as="geometry">
            <mxRectangle width="30" height="39" as="alternateBounds" />
          </mxGeometry>
        </mxCell>
        <mxCell id="v_-HlSnPzHenAggTJ9jH-30" value="birthdate" style="shape=partialRectangle;connectable=0;fillColor=none;top=0;left=0;bottom=0;right=0;align=left;spacingLeft=6;overflow=hidden;whiteSpace=wrap;html=1;fontSize=16;fontStyle=1" vertex="1" parent="v_-HlSnPzHenAggTJ9jH-28">
          <mxGeometry x="30" width="220" height="39" as="geometry">
            <mxRectangle width="220" height="39" as="alternateBounds" />
          </mxGeometry>
        </mxCell>
        <mxCell id="v_-HlSnPzHenAggTJ9jH-31" value="" style="shape=tableRow;horizontal=0;startSize=0;swimlaneHead=0;swimlaneBody=0;fillColor=none;collapsible=0;dropTarget=0;points=[[0,0.5],[1,0.5]];portConstraint=eastwest;top=0;left=0;right=0;bottom=0;fontSize=16;fontStyle=1" vertex="1" parent="v_-HlSnPzHenAggTJ9jH-3">
          <mxGeometry y="391" width="250" height="39" as="geometry" />
        </mxCell>
        <mxCell id="v_-HlSnPzHenAggTJ9jH-32" value="" style="shape=partialRectangle;connectable=0;fillColor=none;top=0;left=0;bottom=0;right=0;editable=1;overflow=hidden;whiteSpace=wrap;html=1;fontSize=16;fontStyle=1" vertex="1" parent="v_-HlSnPzHenAggTJ9jH-31">
          <mxGeometry width="30" height="39" as="geometry">
            <mxRectangle width="30" height="39" as="alternateBounds" />
          </mxGeometry>
        </mxCell>
        <mxCell id="v_-HlSnPzHenAggTJ9jH-33" value="create_date" style="shape=partialRectangle;connectable=0;fillColor=none;top=0;left=0;bottom=0;right=0;align=left;spacingLeft=6;overflow=hidden;whiteSpace=wrap;html=1;fontSize=16;fontStyle=1" vertex="1" parent="v_-HlSnPzHenAggTJ9jH-31">
          <mxGeometry x="30" width="220" height="39" as="geometry">
            <mxRectangle width="220" height="39" as="alternateBounds" />
          </mxGeometry>
        </mxCell>
        <mxCell id="v_-HlSnPzHenAggTJ9jH-35" value="gold.fact_sales" style="shape=table;startSize=40;container=1;collapsible=1;childLayout=tableLayout;fixedRows=1;rowLines=0;fontStyle=1;align=center;resizeLast=1;html=1;rounded=1;fillColor=#dae8fc;strokeColor=#6c8ebf;fontSize=16;" vertex="1" parent="1">
          <mxGeometry x="600" y="250" width="250" height="401" as="geometry" />
        </mxCell>
        <mxCell id="v_-HlSnPzHenAggTJ9jH-39" value="" style="shape=tableRow;horizontal=0;startSize=0;swimlaneHead=0;swimlaneBody=0;fillColor=none;collapsible=0;dropTarget=0;points=[[0,0.5],[1,0.5]];portConstraint=eastwest;top=0;left=0;right=0;bottom=0;fontSize=16;fontStyle=1" vertex="1" parent="v_-HlSnPzHenAggTJ9jH-35">
          <mxGeometry y="40" width="250" height="39" as="geometry" />
        </mxCell>
        <mxCell id="v_-HlSnPzHenAggTJ9jH-40" value="" style="shape=partialRectangle;connectable=0;fillColor=none;top=0;left=0;bottom=0;right=0;editable=1;overflow=hidden;whiteSpace=wrap;html=1;fontSize=16;fontStyle=1" vertex="1" parent="v_-HlSnPzHenAggTJ9jH-39">
          <mxGeometry width="40" height="39" as="geometry">
            <mxRectangle width="40" height="39" as="alternateBounds" />
          </mxGeometry>
        </mxCell>
        <mxCell id="v_-HlSnPzHenAggTJ9jH-41" value="order_number" style="shape=partialRectangle;connectable=0;fillColor=none;top=0;left=0;bottom=0;right=0;align=left;spacingLeft=6;overflow=hidden;whiteSpace=wrap;html=1;fontSize=16;fontStyle=1" vertex="1" parent="v_-HlSnPzHenAggTJ9jH-39">
          <mxGeometry x="40" width="210" height="39" as="geometry">
            <mxRectangle width="210" height="39" as="alternateBounds" />
          </mxGeometry>
        </mxCell>
        <mxCell id="v_-HlSnPzHenAggTJ9jH-42" value="" style="shape=tableRow;horizontal=0;startSize=0;swimlaneHead=0;swimlaneBody=0;fillColor=none;collapsible=0;dropTarget=0;points=[[0,0.5],[1,0.5]];portConstraint=eastwest;top=0;left=0;right=0;bottom=0;fontSize=16;fontStyle=1" vertex="1" parent="v_-HlSnPzHenAggTJ9jH-35">
          <mxGeometry y="79" width="250" height="39" as="geometry" />
        </mxCell>
        <mxCell id="v_-HlSnPzHenAggTJ9jH-43" value="FK1" style="shape=partialRectangle;connectable=0;fillColor=none;top=0;left=0;bottom=0;right=0;editable=1;overflow=hidden;whiteSpace=wrap;html=1;fontSize=16;fontStyle=1" vertex="1" parent="v_-HlSnPzHenAggTJ9jH-42">
          <mxGeometry width="40" height="39" as="geometry">
            <mxRectangle width="40" height="39" as="alternateBounds" />
          </mxGeometry>
        </mxCell>
        <mxCell id="v_-HlSnPzHenAggTJ9jH-44" value="product_key" style="shape=partialRectangle;connectable=0;fillColor=none;top=0;left=0;bottom=0;right=0;align=left;spacingLeft=6;overflow=hidden;whiteSpace=wrap;html=1;fontSize=16;fontStyle=1" vertex="1" parent="v_-HlSnPzHenAggTJ9jH-42">
          <mxGeometry x="40" width="210" height="39" as="geometry">
            <mxRectangle width="210" height="39" as="alternateBounds" />
          </mxGeometry>
        </mxCell>
        <mxCell id="v_-HlSnPzHenAggTJ9jH-45" value="" style="shape=tableRow;horizontal=0;startSize=0;swimlaneHead=0;swimlaneBody=0;fillColor=none;collapsible=0;dropTarget=0;points=[[0,0.5],[1,0.5]];portConstraint=eastwest;top=0;left=0;right=0;bottom=0;fontSize=16;fontStyle=1" vertex="1" parent="v_-HlSnPzHenAggTJ9jH-35">
          <mxGeometry y="118" width="250" height="39" as="geometry" />
        </mxCell>
        <mxCell id="v_-HlSnPzHenAggTJ9jH-46" value="FK2" style="shape=partialRectangle;connectable=0;fillColor=none;top=0;left=0;bottom=0;right=0;editable=1;overflow=hidden;whiteSpace=wrap;html=1;fontSize=16;fontStyle=1" vertex="1" parent="v_-HlSnPzHenAggTJ9jH-45">
          <mxGeometry width="40" height="39" as="geometry">
            <mxRectangle width="40" height="39" as="alternateBounds" />
          </mxGeometry>
        </mxCell>
        <mxCell id="v_-HlSnPzHenAggTJ9jH-47" value="customer_key" style="shape=partialRectangle;connectable=0;fillColor=none;top=0;left=0;bottom=0;right=0;align=left;spacingLeft=6;overflow=hidden;whiteSpace=wrap;html=1;fontSize=16;fontStyle=1" vertex="1" parent="v_-HlSnPzHenAggTJ9jH-45">
          <mxGeometry x="40" width="210" height="39" as="geometry">
            <mxRectangle width="210" height="39" as="alternateBounds" />
          </mxGeometry>
        </mxCell>
        <mxCell id="v_-HlSnPzHenAggTJ9jH-48" value="" style="shape=tableRow;horizontal=0;startSize=0;swimlaneHead=0;swimlaneBody=0;fillColor=none;collapsible=0;dropTarget=0;points=[[0,0.5],[1,0.5]];portConstraint=eastwest;top=0;left=0;right=0;bottom=0;fontSize=16;fontStyle=1" vertex="1" parent="v_-HlSnPzHenAggTJ9jH-35">
          <mxGeometry y="157" width="250" height="39" as="geometry" />
        </mxCell>
        <mxCell id="v_-HlSnPzHenAggTJ9jH-49" value="" style="shape=partialRectangle;connectable=0;fillColor=none;top=0;left=0;bottom=0;right=0;editable=1;overflow=hidden;whiteSpace=wrap;html=1;fontSize=16;fontStyle=1" vertex="1" parent="v_-HlSnPzHenAggTJ9jH-48">
          <mxGeometry width="40" height="39" as="geometry">
            <mxRectangle width="40" height="39" as="alternateBounds" />
          </mxGeometry>
        </mxCell>
        <mxCell id="v_-HlSnPzHenAggTJ9jH-50" value="order_date" style="shape=partialRectangle;connectable=0;fillColor=none;top=0;left=0;bottom=0;right=0;align=left;spacingLeft=6;overflow=hidden;whiteSpace=wrap;html=1;fontSize=16;fontStyle=1" vertex="1" parent="v_-HlSnPzHenAggTJ9jH-48">
          <mxGeometry x="40" width="210" height="39" as="geometry">
            <mxRectangle width="210" height="39" as="alternateBounds" />
          </mxGeometry>
        </mxCell>
        <mxCell id="v_-HlSnPzHenAggTJ9jH-51" value="" style="shape=tableRow;horizontal=0;startSize=0;swimlaneHead=0;swimlaneBody=0;fillColor=none;collapsible=0;dropTarget=0;points=[[0,0.5],[1,0.5]];portConstraint=eastwest;top=0;left=0;right=0;bottom=0;fontSize=16;fontStyle=1" vertex="1" parent="v_-HlSnPzHenAggTJ9jH-35">
          <mxGeometry y="196" width="250" height="39" as="geometry" />
        </mxCell>
        <mxCell id="v_-HlSnPzHenAggTJ9jH-52" value="" style="shape=partialRectangle;connectable=0;fillColor=none;top=0;left=0;bottom=0;right=0;editable=1;overflow=hidden;whiteSpace=wrap;html=1;fontSize=16;fontStyle=1" vertex="1" parent="v_-HlSnPzHenAggTJ9jH-51">
          <mxGeometry width="40" height="39" as="geometry">
            <mxRectangle width="40" height="39" as="alternateBounds" />
          </mxGeometry>
        </mxCell>
        <mxCell id="v_-HlSnPzHenAggTJ9jH-53" value="shipping_date" style="shape=partialRectangle;connectable=0;fillColor=none;top=0;left=0;bottom=0;right=0;align=left;spacingLeft=6;overflow=hidden;whiteSpace=wrap;html=1;fontSize=16;fontStyle=1" vertex="1" parent="v_-HlSnPzHenAggTJ9jH-51">
          <mxGeometry x="40" width="210" height="39" as="geometry">
            <mxRectangle width="210" height="39" as="alternateBounds" />
          </mxGeometry>
        </mxCell>
        <mxCell id="v_-HlSnPzHenAggTJ9jH-54" value="" style="shape=tableRow;horizontal=0;startSize=0;swimlaneHead=0;swimlaneBody=0;fillColor=none;collapsible=0;dropTarget=0;points=[[0,0.5],[1,0.5]];portConstraint=eastwest;top=0;left=0;right=0;bottom=0;fontSize=16;fontStyle=1" vertex="1" parent="v_-HlSnPzHenAggTJ9jH-35">
          <mxGeometry y="235" width="250" height="39" as="geometry" />
        </mxCell>
        <mxCell id="v_-HlSnPzHenAggTJ9jH-55" value="" style="shape=partialRectangle;connectable=0;fillColor=none;top=0;left=0;bottom=0;right=0;editable=1;overflow=hidden;whiteSpace=wrap;html=1;fontSize=16;fontStyle=1" vertex="1" parent="v_-HlSnPzHenAggTJ9jH-54">
          <mxGeometry width="40" height="39" as="geometry">
            <mxRectangle width="40" height="39" as="alternateBounds" />
          </mxGeometry>
        </mxCell>
        <mxCell id="v_-HlSnPzHenAggTJ9jH-56" value="due_date" style="shape=partialRectangle;connectable=0;fillColor=none;top=0;left=0;bottom=0;right=0;align=left;spacingLeft=6;overflow=hidden;whiteSpace=wrap;html=1;fontSize=16;fontStyle=1" vertex="1" parent="v_-HlSnPzHenAggTJ9jH-54">
          <mxGeometry x="40" width="210" height="39" as="geometry">
            <mxRectangle width="210" height="39" as="alternateBounds" />
          </mxGeometry>
        </mxCell>
        <mxCell id="v_-HlSnPzHenAggTJ9jH-57" value="" style="shape=tableRow;horizontal=0;startSize=0;swimlaneHead=0;swimlaneBody=0;fillColor=none;collapsible=0;dropTarget=0;points=[[0,0.5],[1,0.5]];portConstraint=eastwest;top=0;left=0;right=0;bottom=0;fontSize=16;fontStyle=1" vertex="1" parent="v_-HlSnPzHenAggTJ9jH-35">
          <mxGeometry y="274" width="250" height="39" as="geometry" />
        </mxCell>
        <mxCell id="v_-HlSnPzHenAggTJ9jH-58" value="" style="shape=partialRectangle;connectable=0;fillColor=none;top=0;left=0;bottom=0;right=0;editable=1;overflow=hidden;whiteSpace=wrap;html=1;fontSize=16;fontStyle=1" vertex="1" parent="v_-HlSnPzHenAggTJ9jH-57">
          <mxGeometry width="40" height="39" as="geometry">
            <mxRectangle width="40" height="39" as="alternateBounds" />
          </mxGeometry>
        </mxCell>
        <mxCell id="v_-HlSnPzHenAggTJ9jH-59" value="sales_amount" style="shape=partialRectangle;connectable=0;fillColor=none;top=0;left=0;bottom=0;right=0;align=left;spacingLeft=6;overflow=hidden;whiteSpace=wrap;html=1;fontSize=16;fontStyle=1" vertex="1" parent="v_-HlSnPzHenAggTJ9jH-57">
          <mxGeometry x="40" width="210" height="39" as="geometry">
            <mxRectangle width="210" height="39" as="alternateBounds" />
          </mxGeometry>
        </mxCell>
        <mxCell id="v_-HlSnPzHenAggTJ9jH-60" value="" style="shape=tableRow;horizontal=0;startSize=0;swimlaneHead=0;swimlaneBody=0;fillColor=none;collapsible=0;dropTarget=0;points=[[0,0.5],[1,0.5]];portConstraint=eastwest;top=0;left=0;right=0;bottom=0;fontSize=16;fontStyle=1" vertex="1" parent="v_-HlSnPzHenAggTJ9jH-35">
          <mxGeometry y="313" width="250" height="39" as="geometry" />
        </mxCell>
        <mxCell id="v_-HlSnPzHenAggTJ9jH-61" value="" style="shape=partialRectangle;connectable=0;fillColor=none;top=0;left=0;bottom=0;right=0;editable=1;overflow=hidden;whiteSpace=wrap;html=1;fontSize=16;fontStyle=1" vertex="1" parent="v_-HlSnPzHenAggTJ9jH-60">
          <mxGeometry width="40" height="39" as="geometry">
            <mxRectangle width="40" height="39" as="alternateBounds" />
          </mxGeometry>
        </mxCell>
        <mxCell id="v_-HlSnPzHenAggTJ9jH-62" value="quantity" style="shape=partialRectangle;connectable=0;fillColor=none;top=0;left=0;bottom=0;right=0;align=left;spacingLeft=6;overflow=hidden;whiteSpace=wrap;html=1;fontSize=16;fontStyle=1" vertex="1" parent="v_-HlSnPzHenAggTJ9jH-60">
          <mxGeometry x="40" width="210" height="39" as="geometry">
            <mxRectangle width="210" height="39" as="alternateBounds" />
          </mxGeometry>
        </mxCell>
        <mxCell id="v_-HlSnPzHenAggTJ9jH-63" value="" style="shape=tableRow;horizontal=0;startSize=0;swimlaneHead=0;swimlaneBody=0;fillColor=none;collapsible=0;dropTarget=0;points=[[0,0.5],[1,0.5]];portConstraint=eastwest;top=0;left=0;right=0;bottom=0;fontSize=16;fontStyle=1" vertex="1" parent="v_-HlSnPzHenAggTJ9jH-35">
          <mxGeometry y="352" width="250" height="39" as="geometry" />
        </mxCell>
        <mxCell id="v_-HlSnPzHenAggTJ9jH-64" value="" style="shape=partialRectangle;connectable=0;fillColor=none;top=0;left=0;bottom=0;right=0;editable=1;overflow=hidden;whiteSpace=wrap;html=1;fontSize=16;fontStyle=1" vertex="1" parent="v_-HlSnPzHenAggTJ9jH-63">
          <mxGeometry width="40" height="39" as="geometry">
            <mxRectangle width="40" height="39" as="alternateBounds" />
          </mxGeometry>
        </mxCell>
        <mxCell id="v_-HlSnPzHenAggTJ9jH-65" value="price" style="shape=partialRectangle;connectable=0;fillColor=none;top=0;left=0;bottom=0;right=0;align=left;spacingLeft=6;overflow=hidden;whiteSpace=wrap;html=1;fontSize=16;fontStyle=1" vertex="1" parent="v_-HlSnPzHenAggTJ9jH-63">
          <mxGeometry x="40" width="210" height="39" as="geometry">
            <mxRectangle width="210" height="39" as="alternateBounds" />
          </mxGeometry>
        </mxCell>
        <mxCell id="v_-HlSnPzHenAggTJ9jH-72" value="gold.dim_products" style="shape=table;startSize=40;container=1;collapsible=1;childLayout=tableLayout;fixedRows=1;rowLines=0;fontStyle=1;align=center;resizeLast=1;html=1;rounded=1;fillColor=#fff2cc;strokeColor=#d6b656;fontSize=16;" vertex="1" parent="1">
          <mxGeometry x="1070" y="250" width="250" height="479" as="geometry" />
        </mxCell>
        <mxCell id="v_-HlSnPzHenAggTJ9jH-73" value="" style="shape=tableRow;horizontal=0;startSize=0;swimlaneHead=0;swimlaneBody=0;fillColor=none;collapsible=0;dropTarget=0;points=[[0,0.5],[1,0.5]];portConstraint=eastwest;top=0;left=0;right=0;bottom=1;fontSize=16;fontStyle=1" vertex="1" parent="v_-HlSnPzHenAggTJ9jH-72">
          <mxGeometry y="40" width="250" height="39" as="geometry" />
        </mxCell>
        <mxCell id="v_-HlSnPzHenAggTJ9jH-74" value="PK" style="shape=partialRectangle;connectable=0;fillColor=none;top=0;left=0;bottom=0;right=0;fontStyle=1;overflow=hidden;whiteSpace=wrap;html=1;fontSize=16;" vertex="1" parent="v_-HlSnPzHenAggTJ9jH-73">
          <mxGeometry width="30" height="39" as="geometry">
            <mxRectangle width="30" height="39" as="alternateBounds" />
          </mxGeometry>
        </mxCell>
        <mxCell id="v_-HlSnPzHenAggTJ9jH-75" value="product_key" style="shape=partialRectangle;connectable=0;fillColor=none;top=0;left=0;bottom=0;right=0;align=left;spacingLeft=6;fontStyle=5;overflow=hidden;whiteSpace=wrap;html=1;fontSize=16;" vertex="1" parent="v_-HlSnPzHenAggTJ9jH-73">
          <mxGeometry x="30" width="220" height="39" as="geometry">
            <mxRectangle width="220" height="39" as="alternateBounds" />
          </mxGeometry>
        </mxCell>
        <mxCell id="v_-HlSnPzHenAggTJ9jH-76" value="" style="shape=tableRow;horizontal=0;startSize=0;swimlaneHead=0;swimlaneBody=0;fillColor=none;collapsible=0;dropTarget=0;points=[[0,0.5],[1,0.5]];portConstraint=eastwest;top=0;left=0;right=0;bottom=0;fontSize=16;fontStyle=1" vertex="1" parent="v_-HlSnPzHenAggTJ9jH-72">
          <mxGeometry y="79" width="250" height="39" as="geometry" />
        </mxCell>
        <mxCell id="v_-HlSnPzHenAggTJ9jH-77" value="" style="shape=partialRectangle;connectable=0;fillColor=none;top=0;left=0;bottom=0;right=0;editable=1;overflow=hidden;whiteSpace=wrap;html=1;fontSize=16;fontStyle=1" vertex="1" parent="v_-HlSnPzHenAggTJ9jH-76">
          <mxGeometry width="30" height="39" as="geometry">
            <mxRectangle width="30" height="39" as="alternateBounds" />
          </mxGeometry>
        </mxCell>
        <mxCell id="v_-HlSnPzHenAggTJ9jH-78" value="product_id" style="shape=partialRectangle;connectable=0;fillColor=none;top=0;left=0;bottom=0;right=0;align=left;spacingLeft=6;overflow=hidden;whiteSpace=wrap;html=1;fontSize=16;fontStyle=1" vertex="1" parent="v_-HlSnPzHenAggTJ9jH-76">
          <mxGeometry x="30" width="220" height="39" as="geometry">
            <mxRectangle width="220" height="39" as="alternateBounds" />
          </mxGeometry>
        </mxCell>
        <mxCell id="v_-HlSnPzHenAggTJ9jH-79" value="" style="shape=tableRow;horizontal=0;startSize=0;swimlaneHead=0;swimlaneBody=0;fillColor=none;collapsible=0;dropTarget=0;points=[[0,0.5],[1,0.5]];portConstraint=eastwest;top=0;left=0;right=0;bottom=0;fontSize=16;fontStyle=1" vertex="1" parent="v_-HlSnPzHenAggTJ9jH-72">
          <mxGeometry y="118" width="250" height="39" as="geometry" />
        </mxCell>
        <mxCell id="v_-HlSnPzHenAggTJ9jH-80" value="" style="shape=partialRectangle;connectable=0;fillColor=none;top=0;left=0;bottom=0;right=0;editable=1;overflow=hidden;whiteSpace=wrap;html=1;fontSize=16;fontStyle=1" vertex="1" parent="v_-HlSnPzHenAggTJ9jH-79">
          <mxGeometry width="30" height="39" as="geometry">
            <mxRectangle width="30" height="39" as="alternateBounds" />
          </mxGeometry>
        </mxCell>
        <mxCell id="v_-HlSnPzHenAggTJ9jH-81" value="product_number" style="shape=partialRectangle;connectable=0;fillColor=none;top=0;left=0;bottom=0;right=0;align=left;spacingLeft=6;overflow=hidden;whiteSpace=wrap;html=1;fontSize=16;fontStyle=1" vertex="1" parent="v_-HlSnPzHenAggTJ9jH-79">
          <mxGeometry x="30" width="220" height="39" as="geometry">
            <mxRectangle width="220" height="39" as="alternateBounds" />
          </mxGeometry>
        </mxCell>
        <mxCell id="v_-HlSnPzHenAggTJ9jH-82" value="" style="shape=tableRow;horizontal=0;startSize=0;swimlaneHead=0;swimlaneBody=0;fillColor=none;collapsible=0;dropTarget=0;points=[[0,0.5],[1,0.5]];portConstraint=eastwest;top=0;left=0;right=0;bottom=0;fontSize=16;fontStyle=1" vertex="1" parent="v_-HlSnPzHenAggTJ9jH-72">
          <mxGeometry y="157" width="250" height="39" as="geometry" />
        </mxCell>
        <mxCell id="v_-HlSnPzHenAggTJ9jH-83" value="" style="shape=partialRectangle;connectable=0;fillColor=none;top=0;left=0;bottom=0;right=0;editable=1;overflow=hidden;whiteSpace=wrap;html=1;fontSize=16;fontStyle=1" vertex="1" parent="v_-HlSnPzHenAggTJ9jH-82">
          <mxGeometry width="30" height="39" as="geometry">
            <mxRectangle width="30" height="39" as="alternateBounds" />
          </mxGeometry>
        </mxCell>
        <mxCell id="v_-HlSnPzHenAggTJ9jH-84" value="product_name" style="shape=partialRectangle;connectable=0;fillColor=none;top=0;left=0;bottom=0;right=0;align=left;spacingLeft=6;overflow=hidden;whiteSpace=wrap;html=1;fontSize=16;fontStyle=1" vertex="1" parent="v_-HlSnPzHenAggTJ9jH-82">
          <mxGeometry x="30" width="220" height="39" as="geometry">
            <mxRectangle width="220" height="39" as="alternateBounds" />
          </mxGeometry>
        </mxCell>
        <mxCell id="v_-HlSnPzHenAggTJ9jH-85" value="" style="shape=tableRow;horizontal=0;startSize=0;swimlaneHead=0;swimlaneBody=0;fillColor=none;collapsible=0;dropTarget=0;points=[[0,0.5],[1,0.5]];portConstraint=eastwest;top=0;left=0;right=0;bottom=0;fontSize=16;fontStyle=1" vertex="1" parent="v_-HlSnPzHenAggTJ9jH-72">
          <mxGeometry y="196" width="250" height="39" as="geometry" />
        </mxCell>
        <mxCell id="v_-HlSnPzHenAggTJ9jH-86" value="" style="shape=partialRectangle;connectable=0;fillColor=none;top=0;left=0;bottom=0;right=0;editable=1;overflow=hidden;whiteSpace=wrap;html=1;fontSize=16;fontStyle=1" vertex="1" parent="v_-HlSnPzHenAggTJ9jH-85">
          <mxGeometry width="30" height="39" as="geometry">
            <mxRectangle width="30" height="39" as="alternateBounds" />
          </mxGeometry>
        </mxCell>
        <mxCell id="v_-HlSnPzHenAggTJ9jH-87" value="category_id" style="shape=partialRectangle;connectable=0;fillColor=none;top=0;left=0;bottom=0;right=0;align=left;spacingLeft=6;overflow=hidden;whiteSpace=wrap;html=1;fontSize=16;fontStyle=1" vertex="1" parent="v_-HlSnPzHenAggTJ9jH-85">
          <mxGeometry x="30" width="220" height="39" as="geometry">
            <mxRectangle width="220" height="39" as="alternateBounds" />
          </mxGeometry>
        </mxCell>
        <mxCell id="v_-HlSnPzHenAggTJ9jH-88" value="" style="shape=tableRow;horizontal=0;startSize=0;swimlaneHead=0;swimlaneBody=0;fillColor=none;collapsible=0;dropTarget=0;points=[[0,0.5],[1,0.5]];portConstraint=eastwest;top=0;left=0;right=0;bottom=0;fontSize=16;fontStyle=1" vertex="1" parent="v_-HlSnPzHenAggTJ9jH-72">
          <mxGeometry y="235" width="250" height="39" as="geometry" />
        </mxCell>
        <mxCell id="v_-HlSnPzHenAggTJ9jH-89" value="" style="shape=partialRectangle;connectable=0;fillColor=none;top=0;left=0;bottom=0;right=0;editable=1;overflow=hidden;whiteSpace=wrap;html=1;fontSize=16;fontStyle=1" vertex="1" parent="v_-HlSnPzHenAggTJ9jH-88">
          <mxGeometry width="30" height="39" as="geometry">
            <mxRectangle width="30" height="39" as="alternateBounds" />
          </mxGeometry>
        </mxCell>
        <mxCell id="v_-HlSnPzHenAggTJ9jH-90" value="category" style="shape=partialRectangle;connectable=0;fillColor=none;top=0;left=0;bottom=0;right=0;align=left;spacingLeft=6;overflow=hidden;whiteSpace=wrap;html=1;fontSize=16;fontStyle=1" vertex="1" parent="v_-HlSnPzHenAggTJ9jH-88">
          <mxGeometry x="30" width="220" height="39" as="geometry">
            <mxRectangle width="220" height="39" as="alternateBounds" />
          </mxGeometry>
        </mxCell>
        <mxCell id="v_-HlSnPzHenAggTJ9jH-91" value="" style="shape=tableRow;horizontal=0;startSize=0;swimlaneHead=0;swimlaneBody=0;fillColor=none;collapsible=0;dropTarget=0;points=[[0,0.5],[1,0.5]];portConstraint=eastwest;top=0;left=0;right=0;bottom=0;fontSize=16;fontStyle=1" vertex="1" parent="v_-HlSnPzHenAggTJ9jH-72">
          <mxGeometry y="274" width="250" height="39" as="geometry" />
        </mxCell>
        <mxCell id="v_-HlSnPzHenAggTJ9jH-92" value="" style="shape=partialRectangle;connectable=0;fillColor=none;top=0;left=0;bottom=0;right=0;editable=1;overflow=hidden;whiteSpace=wrap;html=1;fontSize=16;fontStyle=1" vertex="1" parent="v_-HlSnPzHenAggTJ9jH-91">
          <mxGeometry width="30" height="39" as="geometry">
            <mxRectangle width="30" height="39" as="alternateBounds" />
          </mxGeometry>
        </mxCell>
        <mxCell id="v_-HlSnPzHenAggTJ9jH-93" value="subcategory" style="shape=partialRectangle;connectable=0;fillColor=none;top=0;left=0;bottom=0;right=0;align=left;spacingLeft=6;overflow=hidden;whiteSpace=wrap;html=1;fontSize=16;fontStyle=1" vertex="1" parent="v_-HlSnPzHenAggTJ9jH-91">
          <mxGeometry x="30" width="220" height="39" as="geometry">
            <mxRectangle width="220" height="39" as="alternateBounds" />
          </mxGeometry>
        </mxCell>
        <mxCell id="v_-HlSnPzHenAggTJ9jH-94" value="" style="shape=tableRow;horizontal=0;startSize=0;swimlaneHead=0;swimlaneBody=0;fillColor=none;collapsible=0;dropTarget=0;points=[[0,0.5],[1,0.5]];portConstraint=eastwest;top=0;left=0;right=0;bottom=0;fontSize=16;fontStyle=1" vertex="1" parent="v_-HlSnPzHenAggTJ9jH-72">
          <mxGeometry y="313" width="250" height="39" as="geometry" />
        </mxCell>
        <mxCell id="v_-HlSnPzHenAggTJ9jH-95" value="" style="shape=partialRectangle;connectable=0;fillColor=none;top=0;left=0;bottom=0;right=0;editable=1;overflow=hidden;whiteSpace=wrap;html=1;fontSize=16;fontStyle=1" vertex="1" parent="v_-HlSnPzHenAggTJ9jH-94">
          <mxGeometry width="30" height="39" as="geometry">
            <mxRectangle width="30" height="39" as="alternateBounds" />
          </mxGeometry>
        </mxCell>
        <mxCell id="v_-HlSnPzHenAggTJ9jH-96" value="maintenance" style="shape=partialRectangle;connectable=0;fillColor=none;top=0;left=0;bottom=0;right=0;align=left;spacingLeft=6;overflow=hidden;whiteSpace=wrap;html=1;fontSize=16;fontStyle=1" vertex="1" parent="v_-HlSnPzHenAggTJ9jH-94">
          <mxGeometry x="30" width="220" height="39" as="geometry">
            <mxRectangle width="220" height="39" as="alternateBounds" />
          </mxGeometry>
        </mxCell>
        <mxCell id="v_-HlSnPzHenAggTJ9jH-97" value="" style="shape=tableRow;horizontal=0;startSize=0;swimlaneHead=0;swimlaneBody=0;fillColor=none;collapsible=0;dropTarget=0;points=[[0,0.5],[1,0.5]];portConstraint=eastwest;top=0;left=0;right=0;bottom=0;fontSize=16;fontStyle=1" vertex="1" parent="v_-HlSnPzHenAggTJ9jH-72">
          <mxGeometry y="352" width="250" height="39" as="geometry" />
        </mxCell>
        <mxCell id="v_-HlSnPzHenAggTJ9jH-98" value="" style="shape=partialRectangle;connectable=0;fillColor=none;top=0;left=0;bottom=0;right=0;editable=1;overflow=hidden;whiteSpace=wrap;html=1;fontSize=16;fontStyle=1" vertex="1" parent="v_-HlSnPzHenAggTJ9jH-97">
          <mxGeometry width="30" height="39" as="geometry">
            <mxRectangle width="30" height="39" as="alternateBounds" />
          </mxGeometry>
        </mxCell>
        <mxCell id="v_-HlSnPzHenAggTJ9jH-99" value="cost" style="shape=partialRectangle;connectable=0;fillColor=none;top=0;left=0;bottom=0;right=0;align=left;spacingLeft=6;overflow=hidden;whiteSpace=wrap;html=1;fontSize=16;fontStyle=1" vertex="1" parent="v_-HlSnPzHenAggTJ9jH-97">
          <mxGeometry x="30" width="220" height="39" as="geometry">
            <mxRectangle width="220" height="39" as="alternateBounds" />
          </mxGeometry>
        </mxCell>
        <mxCell id="v_-HlSnPzHenAggTJ9jH-100" value="" style="shape=tableRow;horizontal=0;startSize=0;swimlaneHead=0;swimlaneBody=0;fillColor=none;collapsible=0;dropTarget=0;points=[[0,0.5],[1,0.5]];portConstraint=eastwest;top=0;left=0;right=0;bottom=0;fontSize=16;fontStyle=1" vertex="1" parent="v_-HlSnPzHenAggTJ9jH-72">
          <mxGeometry y="391" width="250" height="39" as="geometry" />
        </mxCell>
        <mxCell id="v_-HlSnPzHenAggTJ9jH-101" value="" style="shape=partialRectangle;connectable=0;fillColor=none;top=0;left=0;bottom=0;right=0;editable=1;overflow=hidden;whiteSpace=wrap;html=1;fontSize=16;fontStyle=1" vertex="1" parent="v_-HlSnPzHenAggTJ9jH-100">
          <mxGeometry width="30" height="39" as="geometry">
            <mxRectangle width="30" height="39" as="alternateBounds" />
          </mxGeometry>
        </mxCell>
        <mxCell id="v_-HlSnPzHenAggTJ9jH-102" value="product_line" style="shape=partialRectangle;connectable=0;fillColor=none;top=0;left=0;bottom=0;right=0;align=left;spacingLeft=6;overflow=hidden;whiteSpace=wrap;html=1;fontSize=16;fontStyle=1" vertex="1" parent="v_-HlSnPzHenAggTJ9jH-100">
          <mxGeometry x="30" width="220" height="39" as="geometry">
            <mxRectangle width="220" height="39" as="alternateBounds" />
          </mxGeometry>
        </mxCell>
        <mxCell id="v_-HlSnPzHenAggTJ9jH-103" value="" style="shape=tableRow;horizontal=0;startSize=0;swimlaneHead=0;swimlaneBody=0;fillColor=none;collapsible=0;dropTarget=0;points=[[0,0.5],[1,0.5]];portConstraint=eastwest;top=0;left=0;right=0;bottom=0;fontSize=16;fontStyle=1" vertex="1" parent="v_-HlSnPzHenAggTJ9jH-72">
          <mxGeometry y="430" width="250" height="39" as="geometry" />
        </mxCell>
        <mxCell id="v_-HlSnPzHenAggTJ9jH-104" value="" style="shape=partialRectangle;connectable=0;fillColor=none;top=0;left=0;bottom=0;right=0;editable=1;overflow=hidden;whiteSpace=wrap;html=1;fontSize=16;fontStyle=1" vertex="1" parent="v_-HlSnPzHenAggTJ9jH-103">
          <mxGeometry width="30" height="39" as="geometry">
            <mxRectangle width="30" height="39" as="alternateBounds" />
          </mxGeometry>
        </mxCell>
        <mxCell id="v_-HlSnPzHenAggTJ9jH-105" value="start_date" style="shape=partialRectangle;connectable=0;fillColor=none;top=0;left=0;bottom=0;right=0;align=left;spacingLeft=6;overflow=hidden;whiteSpace=wrap;html=1;fontSize=16;fontStyle=1" vertex="1" parent="v_-HlSnPzHenAggTJ9jH-103">
          <mxGeometry x="30" width="220" height="39" as="geometry">
            <mxRectangle width="220" height="39" as="alternateBounds" />
          </mxGeometry>
        </mxCell>
        <mxCell id="v_-HlSnPzHenAggTJ9jH-106" value="" style="edgeStyle=entityRelationEdgeStyle;fontSize=12;html=1;endArrow=ERzeroToMany;startArrow=ERmandOne;rounded=0;exitX=1;exitY=0.5;exitDx=0;exitDy=0;entryX=0;entryY=0.5;entryDx=0;entryDy=0;" edge="1" parent="1" source="v_-HlSnPzHenAggTJ9jH-4" target="v_-HlSnPzHenAggTJ9jH-45">
          <mxGeometry width="100" height="100" relative="1" as="geometry">
            <mxPoint x="500" y="420" as="sourcePoint" />
            <mxPoint x="600" y="320" as="targetPoint" />
          </mxGeometry>
        </mxCell>
        <mxCell id="v_-HlSnPzHenAggTJ9jH-107" value="" style="edgeStyle=entityRelationEdgeStyle;fontSize=12;html=1;endArrow=ERzeroToMany;startArrow=ERmandOne;rounded=0;entryX=0;entryY=0.5;entryDx=0;entryDy=0;exitX=1;exitY=0.5;exitDx=0;exitDy=0;" edge="1" parent="1" source="v_-HlSnPzHenAggTJ9jH-42" target="v_-HlSnPzHenAggTJ9jH-73">
          <mxGeometry width="100" height="100" relative="1" as="geometry">
            <mxPoint x="870" y="330" as="sourcePoint" />
            <mxPoint x="970" y="428" as="targetPoint" />
          </mxGeometry>
        </mxCell>
        <mxCell id="v_-HlSnPzHenAggTJ9jH-108" value="&lt;h1 style=&quot;margin-top: 0px;&quot;&gt;&lt;u&gt;Sales Calculation&lt;/u&gt;&lt;/h1&gt;&lt;p&gt;Sales = Quantity * Price&lt;/p&gt;" style="text;html=1;whiteSpace=wrap;overflow=hidden;rounded=0;" vertex="1" parent="1">
          <mxGeometry x="780" y="680" width="230" height="120" as="geometry" />
        </mxCell>
        <mxCell id="v_-HlSnPzHenAggTJ9jH-109" value="" style="endArrow=none;dashed=1;html=1;dashPattern=1 3;strokeWidth=2;rounded=0;exitX=0;exitY=0;exitDx=0;exitDy=0;" edge="1" parent="1" source="v_-HlSnPzHenAggTJ9jH-108" target="v_-HlSnPzHenAggTJ9jH-57">
          <mxGeometry width="50" height="50" relative="1" as="geometry">
            <mxPoint x="840" y="690" as="sourcePoint" />
            <mxPoint x="890" y="640" as="targetPoint" />
          </mxGeometry>
        </mxCell>
      </root>
    </mxGraphModel>
  </diagram>
</mxfile>
